<?xml version="1.0" encoding="UTF-8" standalone="no"?>
<svg
   width="48"
   height="48"
   viewBox="0 0 47.999999 48.000001"
   version="1.1"
   id="svg1"
   sodipodi:docname="bc-logo-green.svg"
   inkscape:version="1.3.2 (091e20ef0f, 2023-11-25)"
   xmlns:inkscape="http://www.inkscape.org/namespaces/inkscape"
   xmlns:sodipodi="http://sodipodi.sourceforge.net/DTD/sodipodi-0.dtd"
   xmlns="http://www.w3.org/2000/svg"
   xmlns:svg="http://www.w3.org/2000/svg">
  <defs
     id="defs1" />
  <sodipodi:namedview
     id="namedview1"
     pagecolor="#505050"
     bordercolor="#eeeeee"
     borderopacity="1"
     inkscape:showpageshadow="0"
     inkscape:pageopacity="0"
     inkscape:pagecheckerboard="0"
     inkscape:deskcolor="#505050"
     inkscape:zoom="17.124428"
     inkscape:cx="24.759951"
     inkscape:cy="16.701288"
     inkscape:window-width="2560"
     inkscape:window-height="1363"
     inkscape:window-x="0"
     inkscape:window-y="0"
     inkscape:window-maximized="1"
     inkscape:current-layer="svg1" />
  <g
     id="Group_5"
     data-name="Group 5"
     transform="translate(-90.9575,-96.028119)">
    <g
       id="Group_4"
       data-name="Group 4"
       transform="translate(91.385,97.772)">
      <g
         id="Group_3"
         data-name="Group 3">
        <g
           id="Laag_1"
           data-name="Laag 1">
          <g
             id="Group_2"
             data-name="Group 2">
            <g
               id="Group_1"
               data-name="Group 1">
              <path
                 id="Path_1"
                 data-name="Path 1"
                 d="m 158.263,148.682 -0.115,0.119 a 7.181,7.181 0 0 1 -2.444,1.618 h -0.047 a 7.343,7.343 0 0 1 -2.647,0.5 8.57,8.57 0 0 1 -3.835,-0.831 h -0.072 l -0.176,-0.092 -0.05,-0.028 a 6.454,6.454 0 0 1 -2.62,-2.614 l -0.114,-0.2 -2.449,2.629 c 0,0 -0.49,2.514 -0.707,3.747 v 0.083 l 0.059,0.06 v 0 l 0.035,0.038 a 13.16,13.16 0 0 0 9.718,4.283 l 0.2,0.01 0.16,0.008 a 14.313,14.313 0 0 0 6.915,-1.792 l 0.064,-0.033 a 14.253,14.253 0 0 0 3.17,-2.432 l 0.115,-0.119 z"
                 transform="translate(-116.277,-121.596)"
                 fill="#3cc194" />
              <path
                 id="Path_2"
                 data-name="Path 2"
                 d="m 105.587,120.362 v 0.047 l 1,3.735 0.2,-0.321 a 7.244,7.244 0 0 1 4.577,-3.008 h 0.083 a 7.927,7.927 0 0 1 1.987,-0.154 6.9,6.9 0 0 1 2.86,0.833 l 0.071,0.04 a 11.011,11.011 0 0 1 3.166,2.673 l 0.141,0.183 2.343,-3.3 v 0 l 0.751,-3.486 -0.08,-0.061 -0.269,-0.231 a 14.484,14.484 0 0 0 -5.336,-3.124 12.106,12.106 0 0 0 -3.291,-0.518 h -0.052 a 15.194,15.194 0 0 0 -7.192,1.84 l -0.069,0.038 -0.99,4.428 z"
                 transform="translate(-98.191,-105.443)"
                 fill="#3cc194" />
              <path
                 id="Path_3"
                 data-name="Path 3"
                 d="m 120.746,122.213 v -0.067 c 0.014,-0.274 -0.046,-1.35 -0.061,-1.978 L 120.7,120 a 7.132,7.132 0 0 1 1.542,-4.586 l 0.034,-0.045 c 0.149,-0.189 0.308,-0.368 0.478,-0.546 a 7.184,7.184 0 0 1 5.136,-2.182 7.9,7.9 0 0 1 0.925,0.047 h 0.052 a 7.418,7.418 0 0 1 4.219,2.052 l 0.118,0.12 4.962,-5 -0.118,-0.12 a 14.614,14.614 0 0 0 -9.293,-4.095 h -0.052 l -0.941,-0.048 a 15.677,15.677 0 0 0 -6.107,1.18 11.866,11.866 0 0 0 -3.472,2.256 l -0.054,0.049 h -0.062 v 0.031 l -0.038,0.034 v 0 l -0.054,0.049 a 11.194,11.194 0 0 0 -0.983,1.106 v 0.031 l -0.8,3.494 -2.645,3.65 v 2.55 a 7.36,7.36 0 0 1 -4.192,6.588 l -0.048,0.023 a 7.192,7.192 0 0 1 -2.955,0.639 7.381,7.381 0 0 1 -7.438,-7.168 l -0.036,-2.376 0.008,-0.155 -1.3,-5.1 1.1,-4.733 -0.117,-7.437 -7.185,-2.538 0.276,16.447 v 0.072 l 0.094,5.855 a 5.789,5.789 0 0 0 0.027,0.6 0.754,0.754 0 0 0 -0.005,0.108 14.293,14.293 0 0 0 5.414,10.222 l 0.05,0.039 a 14.668,14.668 0 0 0 9.195,3.173 l 0.519,-0.01 0.109,0.006 a 13.414,13.414 0 0 0 9.028,-3.52 l 0.043,-0.039 c 0.337,-0.325 0.66,-0.666 0.969,-1.029 l 0.027,-0.035 0.772,-4.107 2.838,-3.257 z"
                 transform="translate(-91.385,-97.772)"
                 fill="#3cc194" />
            </g>
          </g>
        </g>
      </g>
    </g>
  </g>
</svg>
